HIERARCHY
ROOT root
{
	OFFSET 0.000000 0.000000 0.000000
	CHANNELS 6 Xposition Yposition Zposition Zrotation Yrotation Xrotation
	JOINT lhip
	{
		OFFSET 0.058581 -0.082280 -0.017664
		CHANNELS 3 Zrotation Yrotation Xrotation
		JOINT lknee
		{
			OFFSET 0.043451 -0.386469 0.008037
			CHANNELS 3 Zrotation Yrotation Xrotation
			JOINT lankle
			{
				OFFSET -0.014790 -0.426874 -0.037428
				CHANNELS 3 Zrotation Yrotation Xrotation
				JOINT ltoe
				{
					OFFSET 0.041054 -0.060286 0.122042
					CHANNELS 3 Zrotation Yrotation Xrotation
					End Site
					{
						OFFSET 0.000000 0.000000 0.000000
					}
				}
			}
		}
	}
	JOINT rhip
	{
		OFFSET -0.060310 -0.090513 -0.013543
		CHANNELS 3 Zrotation Yrotation Xrotation
		JOINT rknee
		{
			OFFSET -0.043257 -0.383688 -0.004843
			CHANNELS 3 Zrotation Yrotation Xrotation
			JOINT rankle
			{
				OFFSET 0.019056 -0.420046 -0.034562
				CHANNELS 3 Zrotation Yrotation Xrotation
				JOINT rtoe
				{
					OFFSET -0.034840 -0.062106 0.130323
					CHANNELS 3 Zrotation Yrotation Xrotation
					End Site
					{
						OFFSET 0.000000 0.000000 0.000000
					}
				}
			}
		}
	}
	JOINT lowerback
	{
		OFFSET 0.004439 0.124404 -0.038385
		CHANNELS 3 Zrotation Yrotation Xrotation
		JOINT upperback
		{
			OFFSET 0.004488 0.137956 0.026820
			CHANNELS 3 Zrotation Yrotation Xrotation
			JOINT chest
			{
				OFFSET -0.002265 0.056032 0.002855
				CHANNELS 3 Zrotation Yrotation Xrotation
				JOINT lowerneck
				{
					OFFSET -0.013390 0.211636 -0.033468
					CHANNELS 3 Zrotation Yrotation Xrotation
					JOINT upperneck
					{
						OFFSET 0.010113 0.088937 0.050410
						CHANNELS 3 Zrotation Yrotation Xrotation
						End Site
						{
							OFFSET 0.000000 0.000000 0.000000
						}
					}
				}
				JOINT lclavicle
				{
					OFFSET 0.071702 0.114000 -0.018898
					CHANNELS 3 Zrotation Yrotation Xrotation
					JOINT lshoulder
					{
						OFFSET 0.122921 0.045205 -0.019046
						CHANNELS 3 Zrotation Yrotation Xrotation
						JOINT lelbow
						{
							OFFSET 0.255332 -0.015649 -0.022946
							CHANNELS 3 Zrotation Yrotation Xrotation
							JOINT lwrist
							{
								OFFSET 0.265709 0.012698 -0.007375
								CHANNELS 3 Zrotation Yrotation Xrotation
								End Site
								{
									OFFSET 0.000000 0.000000 0.000000
								}
							}
						}
					}
				}
				JOINT rclavicle
				{
					OFFSET -0.082954 0.112472 -0.023707
					CHANNELS 3 Zrotation Yrotation Xrotation
					JOINT rshoulder
					{
						OFFSET -0.113228 0.046853 -0.008472
						CHANNELS 3 Zrotation Yrotation Xrotation
						JOINT relbow
						{
							OFFSET -0.260127 -0.014369 -0.031269
							CHANNELS 3 Zrotation Yrotation Xrotation
							JOINT rwrist
							{
								OFFSET -0.269108 0.006794 -0.006027
								CHANNELS 3 Zrotation Yrotation Xrotation
								End Site
								{
									OFFSET 0.000000 0.000000 0.000000
								}
							}
						}
					}
				}
			}
		}
	}
}
MOTION
Frames: 7
Frame Time: 0.033333
0.427791 0.190728 1.020848 89.598373 0.748364 94.792214 8.075071 4.400989 4.917113 -3.896876 -5.704384 -5.849387 -3.555497 13.064820 -0.512550 0.000000 -0.000000 0.000000 -6.264823 -6.638553 2.602383 0.810084 4.832671 -1.843487 9.431080 -12.136150 -3.380114 0.000000 -0.000000 0.000000 -4.361114 2.140220 -4.571194 0.441167 -1.124316 -4.451110 1.219984 2.656934 2.415696 0.261673 -3.080743 6.426270 8.877752 1.469206 -5.506796 7.514767 9.296247 -10.277780 -5.517701 -13.361494 -26.529391 21.877020 -14.000588 -32.198403 -12.622273 -24.716036 -23.327811 -7.868295 -6.687304 -2.024908 14.458315 -0.885359 -19.016466 -41.787614 21.135992 -46.395333 19.586542 13.595296 -28.448296 
0.425808 0.190728 1.020202 89.641893 0.767741 94.822908 8.061255 4.275284 4.519297 -3.988650 -5.549051 -5.405583 -3.414122 12.937062 -0.633884 0.000000 -0.000000 0.000000 -6.276470 -6.548457 2.287616 0.846768 4.723498 -1.505328 9.424034 -12.033472 -3.444426 0.000000 -0.000000 0.000000 -4.388838 2.051979 -3.886093 0.549052 -1.041741 -4.822568 1.262890 2.584835 2.718181 0.645391 -3.019272 6.486808 8.415875 1.506719 -4.472394 6.259685 9.979559 -10.646755 -6.308395 -13.611318 -25.973805 22.313461 -14.185293 -32.592726 -12.825702 -24.608419 -23.038669 -6.918144 -7.213647 -2.525601 14.488812 -0.277765 -18.709712 -41.511077 19.758096 -46.695785 20.339609 13.299105 -27.169248 
0.422906 0.190637 1.018966 89.644578 0.786088 94.897171 7.987221 4.253367 3.952428 -4.017062 -5.480778 -4.802070 -3.197788 12.938191 -0.982265 0.000000 -0.000000 0.000000 -6.237887 -6.442233 1.784208 0.839791 4.674732 -0.985947 9.335252 -11.961817 -3.720843 0.000000 -0.000000 0.000000 -4.348621 1.996524 -2.855751 0.514303 -0.917842 -5.416123 1.250261 2.514419 3.028502 1.037684 -2.981060 6.108947 8.248364 1.281905 -3.410631 5.228669 10.661520 -10.839774 -7.354519 -13.808527 -25.629459 22.918810 -14.373718 -32.409926 -12.637503 -24.375347 -23.550805 -5.869501 -7.915234 -2.838820 15.130294 -0.373235 -18.353424 -41.423874 19.920971 -46.539704 19.514025 13.145621 -27.795881 
0.419426 0.190441 1.017241 89.559818 0.810215 94.909137 7.861806 4.196019 3.413715 -4.008028 -5.241920 -4.201309 -2.732712 13.010230 -1.501279 0.000000 -0.000000 0.000000 -6.131083 -6.341686 1.259912 0.787171 4.617248 -0.441243 9.138885 -11.906967 -4.216866 0.000000 -0.000000 0.000000 -4.365867 1.983602 -1.672158 0.483713 -0.779569 -6.132333 1.272517 2.355814 3.599007 1.424106 -2.914679 5.507956 8.017231 1.215299 -2.442466 4.430133 11.458107 -11.246588 -8.540230 -14.133168 -25.351577 23.225428 -14.153041 -32.791813 -12.650245 -24.201396 -23.716014 -5.114130 -8.461599 -3.517217 15.810861 0.806091 -18.049911 -41.143274 17.924607 -47.197734 20.565625 12.790046 -26.489645 
0.415369 0.190043 1.015291 89.263425 0.858362 94.838981 7.705715 4.331583 2.928939 -3.941777 -4.977940 -3.503960 -2.302341 13.127228 -2.099630 0.000000 -0.000000 0.000000 -5.974544 -6.233537 0.570278 0.693993 4.589948 0.434662 8.855570 -11.788248 -4.967851 0.000000 -0.000000 0.000000 -4.482321 2.015305 -0.359685 0.520869 -0.511163 -6.528141 1.367204 2.282570 3.960258 1.647344 -2.762786 5.081550 7.799272 1.279372 -1.986787 3.521338 12.067149 -11.690908 -9.702268 -14.354407 -25.200692 23.723087 -14.097758 -32.981726 -12.289460 -23.742131 -23.962658 -4.155485 -8.924620 -3.921920 16.569464 1.243208 -17.828508 -41.044348 17.315814 -47.748183 20.241524 12.588265 -26.197154 
0.410634 0.189503 1.013373 88.842941 0.908791 94.792516 7.580953 4.368728 2.435065 -3.859776 -4.677013 -2.841396 -1.926303 13.215524 -2.590918 0.000000 -0.000000 0.000000 -5.748577 -6.025061 -0.419720 0.526743 4.663834 1.671416 8.570913 -11.724106 -5.802869 0.000000 -0.000000 0.000000 -4.679237 2.071956 1.027706 0.549105 -0.225340 -6.837472 1.433453 2.179691 4.270018 1.970577 -2.378033 4.466900 7.486801 1.321051 -1.445025 2.829565 12.810517 -11.941060 -11.050563 -14.536153 -24.991902 24.247000 -14.335576 -32.788752 -12.109200 -23.335447 -24.189746 -3.246989 -9.392147 -4.276555 17.712514 1.977797 -17.555331 -41.236479 16.710614 -48.291775 20.013060 12.498861 -25.912701 
0.405733 0.188952 1.012119 88.398478 0.988230 94.832419 7.598398 4.496416 1.770073 -3.883391 -4.392040 -2.057929 -1.837011 13.138250 -2.790097 0.000000 -0.000000 0.000000 -5.573343 -5.786833 -1.534406 0.443786 4.741579 2.938727 8.461797 -11.500418 -6.111251 0.000000 -0.000000 0.000000 -4.880891 2.174027 2.150168 0.561413 0.049977 -6.654143 1.472478 2.148836 4.560570 2.259574 -1.942136 3.914534 7.223230 1.257699 -1.482816 2.076706 13.460752 -12.057582 -12.440347 -14.590811 -24.579407 24.806105 -14.941832 -32.781396 -11.591822 -22.816365 -24.345766 -2.094907 -9.913971 -4.721266 18.998701 2.650363 -17.268133 -41.655741 16.477047 -49.080679 19.899006 12.310927 -25.614153 
